inDegrees=yes
name=ik_S57_A04_T01
DataType=double
version=3
OpenSimVersion=4.3-2021-08-27-4bc7ad9
endheader
time	pelvis_tilt	pelvis_list	pelvis_rotation	pelvis_tx	pelvis_ty	pelvis_tz	hip_flexion_r	hip_adduction_r	hip_rotation_r	knee_angle_r	knee_angle_r_beta	ankle_angle_r	subtalar_angle_r	mtp_angle_r	hip_flexion_l	hip_adduction_l	hip_rotation_l	knee_angle_l	knee_angle_l_beta	ankle_angle_l	subtalar_angle_l	mtp_angle_l	lumbar_extension	lumbar_bending	lumbar_rotation	arm_flex_r	arm_add_r	arm_rot_r	elbow_flex_r	pro_sup_r	wrist_flex_r	wrist_dev_r	arm_flex_l	arm_add_l	arm_rot_l	elbow_flex_l	pro_sup_l	wrist_flex_l	wrist_dev_l
0	0	0	0	0	0.9399999999999999	0	0	0	0	0	0	0	0	0	0	0	0	0	0	0	0	0	0	0	0	0	0	0	0	89.99999999963507	0	0	0	0	0	0	89.99999999869995	0	0
0.02	4.278363335558167	5.264560627636883	24.72187376139605	0	0.9399999999999999	0	53.79227249656393	-1.021402379142526	1.164529423076938	67.06528935969848	1.170510113129458	0	0	0	51.53867197083967	-8.454348005549072	3.362695797379674	72.2972098539335	1.261824351956428	0	0	0	0	0	0	3.528592611248932	-3.528592611248936	0.6394212748966094	18.3020941157606	89.36057876241773	0	0	3.528592611248932	-3.528592611248936	0.6394212748966094	18.3020941157606	89.36057876160262	0	0
0.04	4.295993141367461	5.277751461170248	24.72180103676719	0	0.9399999999999999	0	53.74499755598895	-1.052518758183881	1.178241603375872	66.94535493615662	1.168416862552171	0	0	0	51.51841160368036	-8.448389615633108	3.375055827819256	72.38636283756516	1.263380365058777	0	0	0	0	0	0	4.388312449983571	-4.388312449983577	0.7980791425244687	21.54155654957187	89.2019209041287	0	0	4.388312449983571	-4.388312449983577	0.7980791425244687	21.54155654957187	89.20192090334365	0	0
0.06	4.319240991640034	5.27182083315353	24.71108938066237	0	0.9399999999999999	0	53.73083973172758	-1.023650380462957	1.180972023607403	66.92164138979396	1.168002983090819	0	0	0	51.4952235411153	-8.458901516713661	3.384033700483417	72.34302036611751	1.262623896226064	0	0	0	0	0	0	4.742919508308352	-4.742919508308357	0.8633074629589672	22.86912362458892	89.13669258753096	0	0	4.742919508308352	-4.742919508308357	0.8633074629589672	22.86912362458892	89.13669258675783	0	0
0.08	4.315831675576943	5.270710430189455	24.69901589775601	0	0.9399999999999999	0	53.7319448857367	-1.008382644941833	1.240381969460163	66.93251388520797	1.168192743933701	0	0	0	51.50684971314786	-8.468363821305983	3.411811579942063	72.3972617942717	1.263570587738339	0	0	0	0	0	0	5.10251352342734	-5.102513523427346	0.9303017989819696	24.43541872563674	89.06969825546263	0	0	5.10251352342734	-5.102513523427346	0.9303017989819696	24.43541872563674	89.06969825470202	0	0
0.1	4.322722126565767	5.261534669223432	24.69058965965865	0	0.9399999999999999	0	53.7297043520274	-0.9919301139029338	1.220944835335059	66.92550207328931	1.16807036472919	0	0	0	51.49402772549946	-8.469262738576438	3.422522295572815	72.39592281597697	1.263547218158483	0	0	0	0	0	0	5.536245908909741	-5.536245908909748	1.009166733967608	25.9873498948294	88.99083332510254	0	0	5.536245908909741	-5.536245908909748	1.009166733967608	25.9873498948294	88.9908333243568	0	0
0.12	4.351965892253153	5.291571611588491	24.66041023569374	0	0.9399999999999999	0	53.69763631210192	-0.9791979898364317	1.234216319842802	66.91182988648814	1.167831740053562	0	0	0	51.42090975961455	-8.477874027010234	3.424444718905052	72.36825761841887	1.263064369372879	0	0	0	0	0	0	5.87988059309609	-5.879880593096096	1.071495349245943	27.21813181750966	88.92850471347785	0	0	5.87988059309609	-5.879880593096096	1.071495349245943	27.21813181750966	88.92850471274376	0	0
0.14	4.352651651552041	5.294317415333547	24.67492957274149	0	0.9399999999999999	0	53.70652242254105	-0.9993581028828014	1.225061756193656	66.94538503348379	1.168417387849626	0	0	0	51.40920121409182	-8.463440503845938	3.47789726052219	72.39901778921936	1.263601235631824	0	0	0	0	0	0	6.167332232428554	-6.167332232428559	1.123500546769016	28.24605592791146	88.8764995190015	0	0	6.167332232428554	-6.167332232428559	1.123500546769016	28.24605592791146	88.87649951827723	0	0
0.16	4.368132211975404	5.285388942763371	24.64745789406296	0	0.9399999999999999	0	53.68714160292423	-0.9805892820885331	1.210544618336213	66.90392066094201	1.167693698026499	0	0	0	51.38069388532919	-8.472451290565022	3.496677185381792	72.33973675872602	1.26256658646574	0	0	0	0	0	0	6.463471073734934	-6.46347107373494	1.176642572148094	29.26276229823245	88.82335749672956	0	0	6.463471073734934	-6.46347107373494	1.176642572148094	29.26276229823245	88.82335749601522	0	0
0.18	4.366045194739662	5.303712352660224	24.61874925785371	0	0.9399999999999999	0	53.69102410705521	-0.9999782542892985	1.220596214748284	66.93798988944968	1.168288318237572	0	0	0	51.36448497724967	-8.489095497709791	3.459063968452325	72.3925586414837	1.263488502236964	0	0	0	0	0	0	6.732601187591611	-6.732601187591618	1.224982385383572	30.20469166789507	88.77501768632133	0	0	6.732601187591611	-6.732601187591618	1.224982385383572	30.20469166789507	88.77501768561606	0	0
0.2	4.384290948178928	5.285449509365877	24.63488583852112	0	0.9399999999999999	0	53.68529044499462	-0.9918192383502173	1.16540845588374	66.91112661226182	1.167819465602768	0	0	0	51.36412774675476	-8.4799784992212	3.493581483758679	72.35406048726163	1.262816582689848	0	0	0	0	0	0	7.068275828260388	-7.068275828260394	1.284955243996216	31.35511350001886	88.71504483121196	0	0	7.068275828260388	-7.068275828260394	1.284955243996216	31.35511350001886	88.71504483051783	0	0
0.22	4.404340814131776	5.298075574845478	24.61159561236561	0	0.9399999999999999	0	53.64541551854843	-0.9820161218764242	1.1961901601732	66.87105821991749	1.167120140230379	0	0	0	51.31748309843288	-8.493304512790361	3.489116844750797	72.3038267870013	1.261939839224846	0	0	0	0	0	0	7.441797265487879	-7.441797265487883	1.351111578117886	32.59276075733251	88.64888850094668	0	0	7.441797265487879	-7.441797265487883	1.351111578117886	32.59276075733251	88.64888850026517	0	0
0.24	4.398115353276373	5.327543671288685	24.62603460937211	0	0.9399999999999999	0	53.68079442643245	-1.018834217052524	1.224574753881454	66.97918003047006	1.169007221817739	0	0	0	51.31689541537894	-8.428954859183765	3.491197234333852	72.45699065411776	1.264613053001115	0	0	0	0	0	0	7.713406641457079	-7.713406641457085	1.399121864013333	33.49160922825816	88.60087821784892	0	0	7.713406641457079	-7.713406641457085	1.399121864013333	33.49160922825816	88.60087821717633	0	0
0.26	4.371368130967426	5.30368357457531	24.61682702849124	0	0.9399999999999999	0	53.68670955066606	-0.9902487871765453	1.222754362678025	66.91482746059287	1.167884057591262	0	0	0	51.32956656718149	-8.451587490568677	3.515569368036348	72.36335444359783	1.262978792828451	0	0	0	0	0	0	7.999877026996758	-7.999877026996764	1.449525909894227	34.41993314087846	88.55047417490171	0	0	7.999877026996758	-7.999877026996764	1.449525909894227	34.41993314087846	88.55047417423852	0	0
0.28	4.370736147972595	5.299597711101948	24.61144028506156	0	0.9399999999999999	0	53.6987235229406	-0.9927169384104441	1.264301364574197	66.92832788926741	1.168119684522063	0	0	0	51.3386683447392	-8.437360075651451	3.521683529862718	72.38333077362236	1.263327445559844	0	0	0	0	0	0	8.300691788094143	-8.300691788094149	1.502316164480329	35.39046487190242	88.49768392338643	0	0	8.300691788094143	-8.300691788094149	1.502316164480329	35.39046487190242	88.49768392273312	0	0
0.3	4.34020104841504	5.318078119680729	24.64897185958825	0	0.9399999999999999	0	53.69076042668765	-1.050838703507289	1.28117038806088	66.84042239196727	1.166585444163573	0	0	0	51.3183961339385	-8.390874443073054	3.547656965523764	72.26079536256877	1.261188799186675	0	0	0	0	0	0	8.502661938790217	-8.502661938790222	1.537546338745052	36.02667539415965	88.46245375116814	0	0	8.502661938790217	-8.502661938790222	1.537546338745052	36.02667539415965	88.46245375052149	0	0
0.32	4.282882525343128	5.268055659562161	24.65700742658787	0	0.9399999999999999	0	53.78761994458655	-1.030463634418131	1.252259604679536	66.93380721529086	1.168215316801962	0	0	0	51.43038357887212	-8.418913198135165	3.598847515581639	72.41417526380285	1.263865783469593	0	0	0	0	0	0	8.637292316066729	-8.637292316066732	1.560898040373826	36.44274598649127	88.43910205089399	0	0	8.637292316066729	-8.637292316066732	1.560898040373826	36.44274598649127	88.43910205025189	0	0
0.34	4.218899145244984	5.225196041252898	24.66742710221316	0	0.9399999999999999	0	53.85594177963972	-1.041497482923114	1.2369539494897	66.84980852085413	1.166749263016665	0	0	0	51.49332670971256	-8.417422223010041	3.619126344264587	72.30929358160294	1.262035252790174	0	0	0	0	0	0	8.848708835658886	-8.848708835658892	1.597507874685299	37.09264704087337	88.40249221870562	0	0	8.848708835658886	-8.848708835658892	1.597507874685299	37.09264704087337	88.40249221807034	0	0
0.36	4.193227768925149	5.196755788062133	24.6917220780652	0	0.9399999999999999	0	53.90270181740188	-1.063361987871585	1.197606596825182	66.9532246471442	1.168554214920085	0	0	0	51.57146920626755	-8.42087833246682	3.670108163432508	72.50560607939238	1.265461552239414	0	0	0	0	0	0	8.993764442857072	-8.993764442857076	1.622448192342447	37.52750267659587	88.37755190249247	0	0	8.993764442857072	-8.993764442857076	1.622448192342447	37.52750267659587	88.37755190186209	0	0
0.3800000000000001	4.170196190710233	5.19981365414329	24.6712780524285	0	0.9399999999999999	0	53.90177856606601	-1.056031223832728	1.227660727016646	66.85259337994647	1.16679786797703	0	0	0	51.57540568792339	-8.431052268260173	3.659741051614514	72.37249286609689	1.263138288389498	0	0	0	0	0	0	9.184623964134227	-9.184623964134232	1.655356215040085	38.10731252016212	88.34464388170133	0	0	9.184623964134227	-9.184623964134232	1.655356215040085	38.10731252016212	88.3446438810772	0	0
0.4000000000000001	4.13361621624937	5.190731743861207	24.67492997915622	0	0.9399999999999999	0	53.91953271830314	-1.060417880945383	1.220820372093493	66.81773438911566	1.16618946381311	0	0	0	51.58400278243703	-8.421992623291914	3.687862598536376	72.32705109177144	1.262345179809571	0	0	0	0	0	0	9.336085531522262	-9.336085531522265	1.681363938246722	38.56030390636427	88.31863615999997	0	0	9.336085531522262	-9.336085531522265	1.681363938246722	38.56030390636427	88.31863615938072	0	0
